# xmcd CD database file
#
# Track frame offsets:
#	150
#	5178
#	25637
#	58350
#	81383
#	100449
#	104141
#	123214
#	126404
#	151313
#	168135
#	175328
#	191801
#	215168
#
# Disc length: 3312 seconds
#
# Revision: 0
# Processed by: cddbd v1.5.1PL0 Copyright (c) Steve Scherf et al.
# Submitted via: CDex 1.51
#
DISCID=cf0cee0e
DTITLE=Tricycle - Orange for tea
DYEAR=2004
DGENRE=Jazz
TTITLE0=Intro Kater
TTITLE1=Contamines, mon joie
TTITLE2=Jouer au parc rouge
TTITLE3=Moving on
TTITLE4=Evinha, minha vizinha
TTITLE5=Silvana
TTITLE6=Kater
TTITLE7=L'homme marche droit
TTITLE8=Then at least
TTITLE9=Tzygane
TTITLE10=Stilte voor de storm
TTITLE11=Bongkok ou ailleurs
TTITLE12=Con Largos
TTITLE13=Orange for tea
EXTD=YEAR: 2004
EXTT0=
EXTT1=
EXTT2=
EXTT3=
EXTT4=
EXTT5=
EXTT6=
EXTT7=
EXTT8=
EXTT9=
EXTT10=
EXTT11=
EXTT12=
EXTT13=
PLAYORDER=
